# xmcd CD database file
#
# Track frame offsets:
#	150
#	8835
#	19035
#	34215
#	42490
#	50637
#	62685
#	74795
#	82520
#	94452
#	103302
#	115500
#	127132
#	136537
#	143702
#	152385
#
# Disc length: 2204 seconds
#
# Revision: 1
# Processed by: cddbd v1.5.2PL0 Copyright (c) Steve Scherf et al.
# Submitted via: CDex 1.51
#
DISCID=d6089a10
DTITLE=Big Earl - Sings The Classics
DYEAR=2005
DGENRE=Country
TTITLE0=make love to your mother on the seat of my truck
TTITLE1=dont piss off a snow bird when hes flora bama bound
TTITLE2=shootin crank between my toes
TTITLE3=she left me for a shetland pony
TTITLE4=theres a critter up my shitter
TTITLE5=why dont jimmy buffett play in arkansas
TTITLE6=wish i was jung like my brother (wesley)
TTITLE7=no one can make love like my sister can
TTITLE8=e.r. song
TTITLE9=lovin on a chicken at a motel 6
TTITLE10=sheep song (arkansas love song
TTITLE11=scratching my balls cause it feels good
TTITLE12=white cracker rap song
TTITLE13=im an ole cow poke pokin an ole cow
TTITLE14=get along little doggie doogie style
TTITLE15=cant get laid (featuring todd shawn and tess)
EXTD=YEAR: 2005
EXTT0=
EXTT1=
EXTT2=
EXTT3=
EXTT4=
EXTT5=
EXTT6=
EXTT7=
EXTT8=
EXTT9=
EXTT10=
EXTT11=
EXTT12=
EXTT13=
EXTT14=
EXTT15=
PLAYORDER=
